# File created by Blade
# Date/Time:  Tue Jan 27 18:50:05 2015
# Frame Rate: 120.000 fps
#------------------------------------------------------
:FULLY-SPECIFIED
:DEGREES
1781
root -0.371640 31.651314 -6.278798 1.762229 -4.877147 -14.057494
Spine 7.876894 -9.101857 2.179587
Head 4.812070 -26.224182 11.793440
LeftShoulder -14.287328 14.965528 16.394782
LeftArm 11.116343 -31.209695 -71.078370
LeftForeArm -0.744941 -0.000000 128.715328
LeftHand -21.631966 0.000000 21.484148
LeftHandThumb1 -26.253704 0.000000 33.147579
RightShoulder -15.212319 -4.963694 -4.665821
RightArm 7.246903 -24.001103 73.214678
RightForeArm -29.741058 -0.000000 27.845147
RightHand -14.406259 -0.000000 11.304772
RightHandThumb1 -24.326973 -0.000000 -32.862282
LeftUpLeg -9.308830 15.957656 1.115860
LeftLeg 25.681075 -0.000000 -0.000000
LeftFoot -38.076410 24.303489 -26.638391
LeftToeBase 9.201634 -0.000000 -0.000000
RightUpLeg -79.084360 -29.031349 11.014350
RightLeg 92.605369 -0.000000 -0.000000
RightFoot -15.560887 -28.403204 11.899234
RightToeBase 3.039181 -0.000000 -0.000000
1782
root -0.372568 31.656810 -6.273565 1.856674 -4.870369 -14.042468
Spine 7.755836 -9.161643 2.130014
Head 4.710375 -26.420209 11.893347
LeftShoulder -14.369381 15.016547 16.339674
LeftArm 11.042428 -31.432436 -70.939484
LeftForeArm -0.564578 0.000000 128.663428
LeftHand -21.712216 -0.000000 21.651670
LeftHandThumb1 -26.253704 0.000000 33.147579
RightShoulder -15.218034 -4.989816 -4.622278
RightArm 7.137365 -23.797110 73.272822
RightForeArm -29.786907 -0.000000 27.917943
RightHand -14.345270 -0.000000 11.282208
RightHandThumb1 -24.326973 -0.000000 -32.862282
LeftUpLeg -9.371324 16.068989 1.088212
LeftLeg 25.619496 -0.000000 -0.000000
LeftFoot -38.101917 24.149477 -26.781791
LeftToeBase 9.302351 -0.000000 -0.000000
RightUpLeg -79.035789 -29.130496 11.035540
RightLeg 92.527223 -0.000000 -0.000000
RightFoot -15.563105 -28.497994 11.830818
RightToeBase 3.128874 -0.000000 -0.000000
1783
root -0.376228 31.661934 -6.268455 1.946464 -4.858622 -14.041390
Spine 7.650737 -9.222594 2.078039
Head 4.583422 -26.688512 12.007103
LeftShoulder -14.446958 15.116132 16.305267
LeftArm 10.962462 -31.627375 -70.781279
LeftForeArm -0.437149 -0.000000 128.647917
LeftHand -21.731957 -0.000000 21.736203
LeftHandThumb1 -26.253704 0.000000 33.147579
RightShoulder -15.244980 -5.005502 -4.573971
RightArm 7.057981 -23.605131 73.308682
RightForeArm -29.822369 -0.000000 28.016962
RightHand -14.372318 0.000000 11.238212
RightHandThumb1 -24.326973 -0.000000 -32.862282
LeftUpLeg -9.445307 16.187849 1.076834
LeftLeg 25.589842 -0.000000 -0.000000
LeftFoot -38.118842 23.993313 -26.899457
LeftToeBase 9.409395 -0.000000 -0.000000
RightUpLeg -78.973394 -29.252702 11.090660
RightLeg 92.431403 -0.000000 -0.000000
RightFoot -15.707139 -28.551997 12.065243
RightToeBase 3.155569 -0.000000 -0.000000
1784
root -0.380578 31.664967 -6.262105 2.045337 -4.875696 -14.049351
Spine 7.534933 -9.238198 2.034114
Head 4.446337 -26.994911 12.145540
LeftShoulder -14.525774 15.256933 16.279242
LeftArm 10.964116 -31.840928 -70.725145
LeftForeArm -0.347010 -0.000000 128.664657
LeftHand -21.773459 -0.000000 21.830229
LeftHandThumb1 -26.253704 0.000000 33.147579
RightShoulder -15.282979 -4.989973 -4.564323
RightArm 6.913680 -23.362550 73.381851
RightForeArm -29.866130 0.000000 28.177638
RightHand -14.349726 0.000000 11.179148
RightHandThumb1 -24.326973 -0.000000 -32.862282
LeftUpLeg -9.566216 16.455097 1.068290
LeftLeg 25.633370 -0.000000 -0.000000
LeftFoot -38.020484 23.876421 -26.833278
LeftToeBase 9.404228 -0.000000 -0.000000
RightUpLeg -78.945997 -29.378632 11.206406
RightLeg 92.334150 -0.000000 -0.000000
RightFoot -15.723169 -28.623192 12.100356
RightToeBase 3.241184 -0.000000 -0.000000
1785
root -0.382633 31.667337 -6.255999 2.140506 -4.896075 -14.046925
Spine 7.435332 -9.254425 1.981406
Head 4.272430 -27.286740 12.304974
LeftShoulder -14.597262 15.366878 16.262251
LeftArm 10.895859 -31.991468 -70.623119
LeftForeArm -0.176309 0.000000 128.716120
LeftHand -21.785560 -0.000000 22.071513
LeftHandThumb1 -26.253704 0.000000 33.147579
RightShoulder -15.303316 -4.960583 -4.555304
RightArm 6.733904 -23.020088 73.458028
RightForeArm -29.990080 -0.000000 28.445050
RightHand -14.368614 -0.000000 11.090587
RightHandThumb1 -24.326973 -0.000000 -32.862282
LeftUpLeg -9.662053 16.603654 1.034440
LeftLeg 25.618217 -0.000000 -0.000000
LeftFoot -37.932591 23.917107 -26.742953
LeftToeBase 9.226105 -0.000000 -0.000000
RightUpLeg -78.921403 -29.528865 11.319815
RightLeg 92.243930 -0.000000 -0.000000
RightFoot -15.648854 -28.663757 12.102047
RightToeBase 3.054236 -0.000000 -0.000000
1786
root -0.382176 31.666955 -6.253089 2.234402 -4.935488 -14.056580
Spine 7.357655 -9.250173 1.955884
Head 4.062030 -27.593727 12.445009
LeftShoulder -14.674122 15.471513 16.218903
LeftArm 10.838563 -32.195288 -70.514818
LeftForeArm -0.352371 -0.000000 128.811072
LeftHand -21.746058 0.000000 22.032124
LeftHandThumb1 -26.253704 0.000000 33.147579
RightShoulder -15.316350 -4.933499 -4.580812
RightArm 6.567008 -22.605052 73.533578
RightForeArm -30.168479 0.000000 28.790868
RightHand -14.422068 -0.000000 11.034723
RightHandThumb1 -24.326973 -0.000000 -32.862282
LeftUpLeg -9.761839 16.743579 0.993828
LeftLeg 25.608863 -0.000000 -0.000000
LeftFoot -37.791194 24.088075 -26.493440
LeftToeBase 8.862461 -0.000000 -0.000000
RightUpLeg -78.909615 -29.710224 11.488833
RightLeg 92.121278 -0.000000 -0.000000
RightFoot -15.689354 -28.606697 12.266221
RightToeBase 3.251363 -0.000000 -0.000000
1787
root -0.377792 31.663975 -6.246072 2.308087 -4.972200 -14.039345
Spine 7.301097 -9.237968 1.902813
Head 3.815071 -27.940107 12.615602
LeftShoulder -14.739891 15.542922 16.208071
LeftArm 10.773341 -32.310710 -70.452334
LeftForeArm -0.302213 -0.000000 128.939238
LeftHand -21.858934 0.000000 22.178627
LeftHandThumb1 -26.253704 0.000000 33.147579
RightShoulder -15.330906 -4.946208 -4.594798
RightArm 6.438959 -22.247048 73.564146
RightForeArm -30.375119 -0.000000 29.185533
RightHand -14.681491 -0.000000 10.487777
RightHandThumb1 -24.326973 -0.000000 -32.862282
LeftUpLeg -9.831129 16.894410 0.914784
LeftLeg 25.547096 -0.000000 -0.000000
LeftFoot -37.753182 24.263047 -26.389814
LeftToeBase 8.699381 -0.000000 -0.000000
RightUpLeg -78.905683 -29.932465 11.632164
RightLeg 92.031355 -0.000000 -0.000000
RightFoot -15.666960 -28.616334 12.278032
RightToeBase 3.290045 -0.000000 -0.000000
1788
root -0.372273 31.659224 -6.237476 2.359907 -5.001871 -14.002221
Spine 7.266168 -9.218465 1.835235
Head 3.569412 -28.300391 12.767069
LeftShoulder -14.793295 15.636624 16.161045
LeftArm 10.704321 -32.400758 -70.309597
LeftForeArm -0.355808 -0.000000 129.080778
LeftHand -21.835936 -0.000000 22.235842
LeftHandThumb1 -26.253704 0.000000 33.147579
RightShoulder -15.337024 -4.978894 -4.634111
RightArm 6.305893 -21.741514 73.607845
RightForeArm -30.592952 -0.000000 29.654800
RightHand -14.733640 0.000000 10.264211
RightHandThumb1 -24.326973 -0.000000 -32.862282
LeftUpLeg -9.864931 16.995187 0.822746
LeftLeg 25.468763 -0.000000 -0.000000
LeftFoot -37.646109 24.524783 -26.103352
LeftToeBase 8.354474 -0.000000 -0.000000
RightUpLeg -78.873767 -30.186854 11.733199
RightLeg 91.942353 -0.000000 -0.000000
RightFoot -15.652788 -28.550745 12.293766
RightToeBase 3.347198 -0.000000 -0.000000
1789
root -0.364595 31.652808 -6.231206 2.435895 -5.013444 -13.961519
Spine 7.209944 -9.212137 1.783572
Head 3.309515 -28.698549 12.908580
LeftShoulder -14.833971 15.684432 16.103242
LeftArm 10.597768 -32.512676 -70.140641
LeftForeArm -0.623668 -0.000000 129.261407
LeftHand -21.806753 0.000000 22.080728
LeftHandThumb1 -26.253704 0.000000 33.147579
RightShoulder -15.332559 -4.973736 -4.675105
RightArm 6.143862 -21.234308 73.621570
RightForeArm -30.738953 0.000000 30.187679
RightHand -14.817796 -0.000000 9.980287
RightHandThumb1 -24.326973 -0.000000 -32.862282
LeftUpLeg -9.928874 17.072588 0.709749
LeftLeg 25.398574 -0.000000 -0.000000
LeftFoot -37.570229 24.746384 -25.864093
LeftToeBase 8.162260 -0.000000 -0.000000
RightUpLeg -78.903678 -30.490491 11.863273
RightLeg 91.875001 -0.000000 -0.000000
RightFoot -15.756237 -28.517875 12.363915
RightToeBase 3.354031 -0.000000 -0.000000
1790
root -0.356225 31.645903 -6.225274 2.504720 -5.015112 -13.937649
Spine 7.166470 -9.207061 1.754861
Head 3.054761 -29.099814 13.028280
LeftShoulder -14.890895 15.739675 16.040981
LeftArm 10.574614 -32.571038 -70.032503
LeftForeArm -0.834786 -0.000000 129.446369
LeftHand -21.799233 -0.000000 21.966423
LeftHandThumb1 -26.253704 0.000000 33.147579
RightShoulder -15.329762 -4.992327 -4.717102
RightArm 6.044516 -20.791126 73.569255
RightForeArm -30.708599 -0.000000 30.762193
RightHand -14.907488 -0.000000 9.628837
RightHandThumb1 -24.326973 -0.000000 -32.862282
LeftUpLeg -9.990028 17.138260 0.616831
LeftLeg 25.343914 -0.000000 -0.000000
LeftFoot -37.507582 24.959559 -25.594522
LeftToeBase 8.047556 -0.000000 -0.000000
RightUpLeg -78.907810 -30.812109 11.990623
RightLeg 91.787123 -0.000000 -0.000000
RightFoot -15.849285 -28.448890 12.479539
RightToeBase 3.149309 -0.000000 -0.000000
